<svg width="220" height="220" viewBox="0 0 220 220" fill="none" xmlns="http://www.w3.org/2000/svg">
<path d="M157.03 26.0027L157.354 25.4798L161.282 27.912C161.86 28.2699 162.328 28.1599 162.686 27.5817L163.325 26.5487C163.626 26.0641 163.585 25.645 163.204 25.2915L160.81 23.0326C159.99 22.2665 159.91 21.352 160.568 20.2893L160.994 19.6006C161.799 18.2998 162.853 18.0521 164.153 18.8575L167.24 20.7685L167.537 21.5702L167.213 22.093L163.54 19.8189C162.962 19.4609 162.494 19.571 162.136 20.1491L161.599 21.0163C161.299 21.501 161.34 21.92 161.721 22.2735L164.123 24.5197C164.943 25.2858 165.021 26.2045 164.357 27.2758L163.828 28.1302C163.023 29.4311 161.97 29.6788 160.669 28.8733L157.327 26.8044L157.03 26.0027Z" fill="black"/>
<path d="M165.442 29.2075L168.914 24.6109C169.836 23.39 170.907 23.2405 172.128 24.1625L175.504 26.7117L175.726 27.5374L175.355 28.0282L171.429 25.0632C170.886 24.6534 170.41 24.7199 170 25.2625L166.366 30.0746C165.957 30.6172 166.023 31.0934 166.566 31.5032L170.492 34.4682L170.121 34.959L169.266 34.9711L165.891 32.422C164.67 31.5 164.52 30.4285 165.442 29.2075Z" fill="black"/>
<path d="M171.181 36.5056L178.153 28.8569L181.778 32.1613C182.909 33.1921 182.959 34.2728 181.928 35.4035L180.817 36.6229C179.941 37.5836 179.032 37.7565 178.091 37.1418L176.925 41.3366L176.601 41.4472L175.814 40.7297L177.042 36.2877L174.881 34.3172L172.112 37.3545L171.181 36.5056ZM175.649 33.4747L178.354 35.9404C178.856 36.3985 179.336 36.3763 179.794 35.8738L181.088 34.4549C181.546 33.9524 181.524 33.472 181.021 33.0139L178.317 30.5482L175.649 33.4747Z" fill="black"/>
<path d="M178.914 40.4784L183.171 36.598C184.302 35.5672 185.382 35.6172 186.413 36.7479L188.778 39.3418C189.808 40.4725 189.758 41.5532 188.628 42.584L184.371 46.4644C183.24 47.4952 182.16 47.4452 181.129 46.3145L178.764 43.7206C177.734 42.5899 177.783 41.5092 178.914 40.4784ZM179.663 41.5006C179.161 41.9587 179.139 42.439 179.597 42.9415L181.982 45.5576C182.44 46.0601 182.92 46.0823 183.422 45.6242L187.879 41.5619C188.381 41.1038 188.403 40.6234 187.945 40.1209L185.56 37.5048C185.102 37.0023 184.622 36.9801 184.119 37.4382L179.663 41.5006Z" fill="black"/>
<path d="M183.852 49.4742L192.112 43.2369L192.871 44.2424L185.521 49.7927L188.559 53.8147L187.649 54.5017L183.852 49.4742Z" fill="black"/>
<path d="M189.078 56.5872L197.877 51.1386L198.541 52.2099L190.71 57.0584L193.363 61.3434L192.394 61.9436L189.078 56.5872Z" fill="black"/>
<path d="M197.092 71.1717L206.743 67.4328L208.206 71.2093C209.109 73.5405 208.395 75.1577 206.064 76.0608L203.406 77.0903C201.075 77.9934 199.458 77.2794 198.555 74.9482L197.092 71.1717ZM198.61 71.9348L199.645 74.6063C200.226 76.1076 201.268 76.5674 202.769 75.9858L205.79 74.8154C207.292 74.2338 207.752 73.1924 207.17 71.6911L206.135 69.0196L198.61 71.9348Z" fill="black"/>
<path d="M202.425 78.6416L207.965 77.0653C209.437 76.6466 210.382 77.173 210.801 78.6446L211.761 82.0206C212.18 83.4922 211.654 84.4374 210.182 84.8561L204.642 86.4324C203.17 86.8511 202.225 86.3246 201.806 84.853L200.846 81.477C200.427 80.0054 200.954 79.0603 202.425 78.6416ZM202.64 79.8904C201.986 80.0765 201.752 80.4966 201.938 81.1506L202.907 84.5555C203.093 85.2095 203.513 85.4435 204.167 85.2574L209.967 83.6072C210.621 83.4211 210.855 83.0011 210.669 82.347L209.7 78.9422C209.514 78.2881 209.094 78.0542 208.44 78.2402L202.64 79.8904Z" fill="black"/>
<path d="M212.119 83.7017L212.42 83.8438L212.604 84.8317L203.948 88.6472L203.984 88.8389L212.333 89.5825L212.564 90.821L205.045 94.5156L205.084 94.722L214.534 95.1529L214.719 96.1408L214.489 96.3821L204.142 95.8899L203.759 93.8404L210.443 90.5766L203.032 89.9478L202.648 87.8983L212.119 83.7017Z" fill="black"/>
<path d="M204.25 96.5959L214.556 95.641L214.684 97.03L206.822 103.227L215.187 102.452L215.303 103.706L204.997 104.661L204.868 103.272L212.73 97.0755L204.366 97.8505L204.25 96.5959Z" fill="black"/>
<path d="M193.077 157.03L193.6 157.354L191.168 161.282C190.81 161.86 190.92 162.328 191.498 162.686L192.531 163.325C193.016 163.625 193.435 163.585 193.789 163.204L196.047 160.81C196.814 159.99 197.728 159.909 198.791 160.568L199.479 160.994C200.78 161.799 201.028 162.853 200.223 164.153L198.312 167.24L197.51 167.537L196.987 167.213L199.261 163.54C199.619 162.962 199.509 162.494 198.931 162.136L198.064 161.599C197.579 161.299 197.16 161.34 196.807 161.721L194.56 164.123C193.794 164.942 192.876 165.021 191.804 164.357L190.95 163.828C189.649 163.023 189.401 161.97 190.207 160.669L192.276 157.327L193.077 157.03Z" fill="black"/>
<path d="M189.872 165.443L194.469 168.914C195.69 169.836 195.839 170.908 194.917 172.129L192.368 175.504L191.542 175.726L191.051 175.356L194.016 171.43C194.426 170.887 194.36 170.411 193.817 170.001L189.005 166.367C188.462 165.957 187.986 166.024 187.576 166.566L184.611 170.493L184.121 170.122L184.108 169.267L186.658 165.891C187.58 164.67 188.651 164.521 189.872 165.443Z" fill="black"/>
<path d="M182.574 171.18L190.223 178.153L186.919 181.778C185.888 182.908 184.807 182.958 183.677 181.928L182.457 180.816C181.496 179.94 181.324 179.032 181.938 178.09L177.743 176.925L177.633 176.601L178.35 175.814L182.792 177.042L184.763 174.88L181.726 172.111L182.574 171.18ZM185.605 175.648L183.14 178.353C182.682 178.856 182.704 179.336 183.206 179.794L184.625 181.087C185.128 181.546 185.608 181.523 186.066 181.021L188.532 178.316L185.605 175.648Z" fill="black"/>
<path d="M178.602 178.915L182.482 183.172C183.513 184.303 183.463 185.383 182.332 186.414L179.738 188.779C178.608 189.809 177.527 189.759 176.496 188.629L172.616 184.372C171.585 183.241 171.635 182.161 172.766 181.13L175.359 178.765C176.49 177.734 177.571 177.784 178.602 178.915ZM177.58 179.664C177.121 179.162 176.641 179.14 176.139 179.598L173.522 181.982C173.02 182.441 172.998 182.921 173.456 183.423L177.518 187.88C177.976 188.382 178.457 188.404 178.959 187.946L181.575 185.561C182.078 185.103 182.1 184.623 181.642 184.12L177.58 179.664Z" fill="black"/>
<path d="M169.606 183.852L175.843 192.112L174.838 192.871L169.287 185.521L165.265 188.559L164.578 187.649L169.606 183.852Z" fill="black"/>
<path d="M162.492 189.077L167.941 197.877L166.87 198.54L162.021 190.71L157.736 193.363L157.136 192.394L162.492 189.077Z" fill="black"/>
<path d="M147.908 197.091L151.647 206.742L147.87 208.205C145.539 209.108 143.922 208.394 143.019 206.063L141.989 203.406C141.086 201.075 141.8 199.457 144.131 198.554L147.908 197.091ZM147.145 198.609L144.473 199.644C142.972 200.226 142.512 201.267 143.094 202.769L144.264 205.79C144.846 207.291 145.887 207.751 147.388 207.169L150.06 206.134L147.145 198.609Z" fill="black"/>
<path d="M140.439 202.425L142.015 207.965C142.434 209.436 141.908 210.382 140.436 210.8L137.06 211.761C135.588 212.18 134.643 211.653 134.224 210.181L132.648 204.641C132.229 203.17 132.756 202.225 134.228 201.806L137.604 200.845C139.075 200.427 140.02 200.953 140.439 202.425ZM139.19 202.64C139.004 201.986 138.584 201.752 137.93 201.938L134.525 202.907C133.871 203.093 133.637 203.513 133.823 204.167L135.473 209.967C135.659 210.621 136.079 210.855 136.734 210.668L140.138 209.7C140.792 209.514 141.026 209.094 140.84 208.439L139.19 202.64Z" fill="black"/>
<path d="M135.379 212.119L135.237 212.42L134.249 212.605L130.433 203.949L130.242 203.985L129.498 212.333L128.26 212.565L124.565 205.046L124.359 205.084L123.928 214.534L122.94 214.719L122.699 214.489L123.191 204.143L125.24 203.76L128.504 210.444L129.133 203.032L131.182 202.649L135.379 212.119Z" fill="black"/>
<path d="M122.484 204.25L123.439 214.556L122.05 214.684L115.853 206.823L116.628 215.187L115.374 215.303L114.419 204.997L115.808 204.868L122.005 212.73L121.229 204.366L122.484 204.25Z" fill="black"/>
<path d="M62.0502 193.076L61.7264 193.599L57.7984 191.167C57.2202 190.809 56.7522 190.919 56.3942 191.497L55.7546 192.53C55.4545 193.015 55.495 193.434 55.876 193.788L58.2705 196.046C59.0899 196.813 59.1706 197.727 58.5125 198.79L58.0861 199.479C57.2807 200.779 56.2275 201.027 54.9267 200.222L51.8404 198.311L51.5429 197.509L51.8667 196.986L55.5396 199.26C56.1177 199.618 56.5858 199.508 56.9438 198.93L57.4807 198.063C57.7808 197.578 57.7404 197.159 57.3594 196.806L54.957 194.559C54.1376 193.793 54.0595 192.875 54.7228 191.803L55.2519 190.949C56.0573 189.648 57.1105 189.4 58.4113 190.206L61.7526 192.275L62.0502 193.076Z" fill="black"/>
<path d="M53.6372 189.872L50.1661 194.468C49.244 195.689 48.1725 195.839 46.9516 194.917L43.576 192.367L43.3537 191.542L43.7243 191.051L47.6505 194.016C48.1932 194.426 48.6694 194.359 49.0792 193.817L52.7131 189.005C53.1229 188.462 53.0565 187.986 52.5138 187.576L48.5876 184.611L48.9582 184.12L49.8132 184.108L53.1888 186.657C54.4098 187.579 54.5593 188.651 53.6372 189.872Z" fill="black"/>
<path d="M47.8994 182.575L40.9266 190.224L37.3018 186.92C36.1711 185.889 36.1211 184.808 37.1519 183.678L38.2635 182.458C39.1393 181.497 40.048 181.325 40.9895 181.939L42.1547 177.744L42.4787 177.634L43.2658 178.351L42.0377 182.793L44.1993 184.764L46.9682 181.727L47.8994 182.575ZM43.4313 185.606L40.7266 183.141C40.224 182.683 39.7437 182.705 39.2856 183.207L37.9921 184.626C37.534 185.129 37.5562 185.609 38.0587 186.067L40.7635 188.533L43.4313 185.606Z" fill="black"/>
<path d="M40.1654 178.602L35.9087 182.482C34.778 183.513 33.6973 183.463 32.6666 182.332L30.3019 179.738C29.2711 178.608 29.3211 177.527 30.4518 176.496L34.7085 172.616C35.8392 171.585 36.9199 171.635 37.9507 172.766L40.3153 175.359C41.3461 176.49 41.2961 177.571 40.1654 178.602ZM39.4163 177.58C39.9189 177.121 39.9411 176.641 39.483 176.139L37.0981 173.522C36.64 173.02 36.1597 172.998 35.6571 173.456L31.2009 177.518C30.6984 177.976 30.6762 178.457 31.1343 178.959L33.5191 181.575C33.9773 182.078 34.4576 182.1 34.9601 181.642L39.4163 177.58Z" fill="black"/>
<path d="M35.2278 169.605L26.9683 175.842L26.209 174.837L33.5588 169.286L30.5215 165.264L31.4312 164.577L35.2278 169.605Z" fill="black"/>
<path d="M30.0029 162.493L21.2031 167.941L20.5398 166.87L28.3703 162.022L25.7171 157.737L26.6863 157.136L30.0029 162.493Z" fill="black"/>
<path d="M21.9883 147.908L12.3372 151.647L10.8742 147.871C9.97111 145.54 10.6851 143.922 13.0163 143.019L15.6739 141.99C18.0051 141.087 19.6222 141.801 20.5253 144.132L21.9883 147.908ZM20.4701 147.145L19.4352 144.474C18.8536 142.972 17.8122 142.513 16.3109 143.094L13.2897 144.265C11.7884 144.846 11.3285 145.888 11.9101 147.389L12.9451 150.061L20.4701 147.145Z" fill="black"/>
<path d="M16.6549 140.438L11.1148 142.015C9.64316 142.433 8.69802 141.907 8.27931 140.435L7.31876 137.059C6.90006 135.588 7.4265 134.643 8.8981 134.224L14.4382 132.648C15.9098 132.229 16.855 132.755 17.2737 134.227L18.2342 137.603C18.6529 139.075 18.1265 140.02 16.6549 140.438ZM16.4399 139.19C17.0939 139.004 17.3279 138.583 17.1418 137.929L16.1731 134.525C15.987 133.871 15.5669 133.637 14.9129 133.823L9.11306 135.473C8.45902 135.659 8.22505 136.079 8.41114 136.733L9.3799 140.138C9.56599 140.792 9.98606 141.026 10.6401 140.84L16.4399 139.19Z" fill="black"/>
<path d="M6.961 135.379L6.65976 135.237L6.47509 134.249L15.1314 130.434L15.0955 130.242L6.74676 129.499L6.51523 128.26L14.0344 124.565L13.9958 124.359L4.54572 123.928L4.36105 122.94L4.59062 122.699L14.9372 123.191L15.3204 125.241L8.63626 128.504L16.048 129.133L16.4311 131.183L6.961 135.379Z" fill="black"/>
<path d="M14.8309 122.483L4.52501 123.438L4.3963 122.049L12.2581 115.852L3.89391 116.627L3.77765 115.373L14.0835 114.418L14.2122 115.807L6.35044 122.004L14.7146 121.229L14.8309 122.483Z" fill="black"/>
<path d="M26.0032 62.0502L25.4803 61.7264L27.9124 57.7985C28.2704 57.2203 28.1603 56.7522 27.5822 56.3943L26.5492 55.7547C26.0646 55.4546 25.6455 55.495 25.292 55.876L23.0331 58.2705C22.267 59.0899 21.3525 59.1706 20.2897 58.5126L19.6011 58.0861C18.3002 57.2807 18.0526 56.2276 18.858 54.9267L20.769 51.8405L21.5707 51.5429L22.0936 51.8667L19.8193 55.5396C19.4614 56.1178 19.5715 56.5858 20.1496 56.9438L21.0168 57.4808C21.5014 57.7808 21.9205 57.7404 22.274 57.3594L24.5202 54.957C25.2863 54.1376 26.205 54.0596 27.2763 54.7229L28.1307 55.2519C29.4315 56.0574 29.6792 57.1105 28.8738 58.4113L26.8049 61.7527L26.0032 62.0502Z" fill="black"/>
<path d="M29.208 53.6382L24.6114 50.167C23.3904 49.245 23.241 48.1735 24.163 46.9525L26.7122 43.5769L27.5379 43.3547L28.0287 43.7253L25.0637 47.6515C24.6539 48.1942 24.7204 48.6704 25.263 49.0802L30.075 52.7141C30.6177 53.1239 31.0939 53.0574 31.5037 52.5148L34.4687 48.5886L34.9595 48.9592L34.9716 49.8142L32.4225 53.1898C31.5005 54.4108 30.429 54.5603 29.208 53.6382Z" fill="black"/>
<path d="M36.5056 47.8999L28.8569 40.9271L32.1613 37.3023C33.1921 36.1716 34.2728 36.1216 35.4035 37.1524L36.6229 38.264C37.5836 39.1398 37.7565 40.0485 37.1418 40.99L41.3366 42.1552L41.4472 42.4792L40.7297 43.2663L36.2877 42.0382L34.3172 44.1998L37.3545 46.9687L36.5056 47.8999ZM33.4747 43.4318L35.9404 40.727C36.3985 40.2245 36.3763 39.7442 35.8738 39.2861L34.4549 37.9926C33.9524 37.5345 33.472 37.5567 33.0139 38.0592L30.5482 40.764L33.4747 43.4318Z" fill="black"/>
<path d="M40.478 40.1649L36.5975 35.9082C35.5667 34.7775 35.6167 33.6968 36.7474 32.6661L39.3413 30.3014C40.472 29.2707 41.5527 29.3206 42.5835 30.4513L46.464 34.708C47.4947 35.8387 47.4447 36.9194 46.314 37.9502L43.7201 40.3148C42.5894 41.3456 41.5087 41.2956 40.478 40.1649ZM41.5001 39.4158C41.9582 39.9184 42.4385 39.9406 42.941 39.4825L45.5571 37.0976C46.0596 36.6395 46.0819 36.1592 45.6237 35.6566L41.5614 31.2004C41.1033 30.6979 40.6229 30.6757 40.1204 31.1338L37.5043 33.5186C37.0018 33.9768 36.9796 34.4571 37.4377 34.9596L41.5001 39.4158Z" fill="black"/>
<path d="M49.4747 35.2278L43.2374 26.9683L44.2429 26.209L49.7932 33.5588L53.8152 30.5215L54.5022 31.4312L49.4747 35.2278Z" fill="black"/>
<path d="M56.5877 30.0029L51.1391 21.2032L52.2104 20.5399L57.0588 28.3704L61.3439 25.7171L61.944 26.6864L56.5877 30.0029Z" fill="black"/>
<path d="M71.1717 21.9878L67.4328 12.3367L71.2093 10.8737C73.5405 9.97062 75.1577 10.6847 76.0608 13.0158L77.0903 15.6734C77.9934 18.0046 77.2794 19.6217 74.9482 20.5248L71.1717 21.9878ZM71.9348 20.4697L74.6063 19.4347C76.1076 18.8531 76.5674 17.8117 75.9858 16.3104L74.8154 13.2892C74.2338 11.7879 73.1924 11.328 71.6911 11.9096L69.0196 12.9446L71.9348 20.4697Z" fill="black"/>
<path d="M78.6416 16.6554L77.0653 11.1152C76.6466 9.64365 77.173 8.6985 78.6446 8.2798L82.0206 7.31925C83.4922 6.90054 84.4374 7.42699 84.8561 8.89858L86.4324 14.4387C86.8511 15.9103 86.3246 16.8554 84.853 17.2741L81.477 18.2347C80.0054 18.6534 79.0603 18.127 78.6416 16.6554ZM79.8904 16.4404C80.0765 17.0944 80.4966 17.3284 81.1506 17.1423L84.5555 16.1736C85.2095 15.9875 85.4435 15.5674 85.2574 14.9134L83.6072 9.11355C83.4211 8.45951 83.0011 8.22553 82.347 8.41162L78.9422 9.38039C78.2881 9.56648 78.0542 9.98654 78.2402 10.6406L79.8904 16.4404Z" fill="black"/>
<path d="M83.7012 6.96197L83.8433 6.66074L84.8312 6.47607L88.6467 15.1323L88.8384 15.0965L89.582 6.74773L90.8205 6.5162L94.5151 14.0354L94.7215 13.9968L95.1524 4.54668L96.1403 4.36201L96.3816 4.59159L95.8894 14.9382L93.8399 15.3213L90.5761 8.63723L89.9473 16.049L87.8978 16.4321L83.7012 6.96197Z" fill="black"/>
<path d="M96.596 14.8304L95.641 4.52451L97.03 4.39579L103.227 12.2575L102.452 3.89338L103.706 3.77712L104.661 14.083L103.272 14.2117L97.0755 6.34993L97.8506 14.7141L96.596 14.8304Z" fill="black"/>
</svg>
